<?xml version="1.0" encoding="UTF-8"?>
<svg version="1.1" xmlns="http://www.w3.org/2000/svg" width="67" height="67">
<path d="M0 0 C-0.48578543 3.12290635 -0.9986012 5.99580359 -2 9 C-2.73211743 15.75708386 -2.21363287 21.48798026 2 27 C6.74592508 31.33604973 10.90441696 33.14272762 17.375 33.125 C18.31085937 33.12757812 19.24671875 33.13015625 20.2109375 33.1328125 C22.90729747 33.00441441 25.37271509 32.60188709 28 32 C28.75 33.625 28.75 33.625 29 36 C25.43907708 42.82510226 19.61013133 48.14692677 12.2265625 50.52734375 C3.93236762 52.28804126 -3.64893624 51.24003336 -11 47 C-16.56596493 42.88417153 -20.196111 37.69253491 -22 31 C-23.06847218 23.47663402 -22.03975429 16.50013656 -18 10 C-12.87070098 4.28695613 -7.92674067 0 0 0 Z " fill="#ED5152" transform="translate(30,8)"/>
<path d="M0 0 C1.5 1.3125 1.5 1.3125 3 3 C3 3.99 3 4.98 3 6 C5.64 6.33 8.28 6.66 11 7 C10.01 8.0209375 10.01 8.0209375 9 9.0625 C6.56114128 12.64457375 6.66707415 14.75519536 7 19 C4.61435923 18.42415568 2.33317216 17.77772405 0 17 C-0.99 17.66 -1.98 18.32 -3 19 C-3.99 19 -4.98 19 -6 19 C-5.9175 17.948125 -5.835 16.89625 -5.75 15.8125 C-6.03525487 11.46236331 -7.02449969 10.0684847 -10 7 C-7.36 6.67 -4.72 6.34 -2 6 C-1.855625 5.195625 -1.71125 4.39125 -1.5625 3.5625 C-1 1 -1 1 0 0 Z " fill="#ED5152" transform="translate(50,9)"/>
</svg>
